<svg xmlns="http://www.w3.org/2000/svg" viewBox="0 0 11.13 5.48"><defs><clipPath id="clip-path" transform="translate(-7 -9)"><path class="cls-1" d="M7 9h11.13v5.48H7z"/></clipPath><clipPath id="clip-path-2" transform="translate(-7 -9)"><path class="cls-1" d="M0 0h19.13v23.48H0z"/></clipPath><style>.cls-1{fill:none}</style></defs><g id="Camada_2" data-name="Camada 2"><g clip-path="url(#clip-path)" id="Camada_1-2" data-name="Camada 1"><g clip-path="url(#clip-path-2)" opacity=".54"><path d="M12.56 13l1.31-1.16 2.61-2.28.35-.3a.82.82 0 011.09 0 .58.58 0 010 .93l-3.07 2.67-1.58 1.38a.89.89 0 01-.87.28.93.93 0 01-.35-.18l-4.8-4.21a.58.58 0 01-.15-.8A.77.77 0 018 9a.92.92 0 01.32.17l3.8 3.3c.15.14.3.28.48.46" transform="translate(-7 -9)" fill="#231f29"/></g></g></g></svg>